<svg id="Шар_1" data-name="Шар 1" xmlns="http://www.w3.org/2000/svg" viewBox="0 0 462.21 193.88"><defs><style>.cls-1{opacity:0.5;}.cls-2{fill:#fff;}.cls-3{fill:#ffcd2e;}.cls-4{fill:none;stroke:#fff;stroke-linecap:round;stroke-miterlimit:10;stroke-width:5px;}.cls-5{fill:#f28f00;}</style></defs><g class="cls-1"><rect class="cls-2" x="72.33" y="18.95" width="389.88" height="158.78" rx="79.39"/></g><circle class="cls-3" cx="89.94" cy="99.75" r="89.94"/><path d="M97.45,7A89.94,89.94,0,1,1,7.51,96.94,89.94,89.94,0,0,1,97.45,7m0-7a96.94,96.94,0,1,0,96.94,96.94A97.05,97.05,0,0,0,97.45,0Z"/><path class="cls-4" d="M122.66,24.44a85.23,85.23,0,0,1,44.88,48.2"/><circle class="cls-3" cx="89.94" cy="99.75" r="70.76"/><path class="cls-5" d="M89.94,33A66.76,66.76,0,1,1,23.18,99.75,66.83,66.83,0,0,1,89.94,33m0-8A74.76,74.76,0,1,0,164.7,99.75,74.76,74.76,0,0,0,89.94,25Z"/><path class="cls-5" d="M95,59.92l8.23,16.68a5.64,5.64,0,0,0,4.25,3.09l18.4,2.68A5.64,5.64,0,0,1,129,92l-13.31,13a5.65,5.65,0,0,0-1.63,5l3.15,18.33a5.65,5.65,0,0,1-8.2,6l-16.46-8.65a5.63,5.63,0,0,0-5.26,0l-16.46,8.65a5.65,5.65,0,0,1-8.2-6L65.79,110a5.62,5.62,0,0,0-1.62-5L50.85,92A5.65,5.65,0,0,1,54,82.37l18.41-2.68a5.64,5.64,0,0,0,4.25-3.09l8.23-16.68A5.66,5.66,0,0,1,95,59.92Z"/></svg>