<svg id="Шар_1" data-name="Шар 1" xmlns="http://www.w3.org/2000/svg" viewBox="0 0 1388.83 369.51"><defs><style>.cls-1{fill:#775bd6;}.cls-2{fill:#fff;}</style></defs><path class="cls-1" d="M1244.68,369.51,127.47,356.37c-49.51,0-84.24-21-101.26-89.64L1.6,179.07C-10,106.29,42.65,44.35,123.17,44.35L1239.11,25a118.43,118.43,0,0,1,118.43,118.43l-23.22,136.44C1326.58,334.67,1294.18,369.51,1244.68,369.51Z"/><path d="M1271,354.51h-.06L153.69,341.37c-57.27,0-90-28.79-106-93.36L23,160.14l-.05-.28c-5.78-36.2,3.46-70.69,26-97.13,23.87-28,59.56-43.38,100.5-43.38L1265.31,0c68.15,0,123.52,55.37,123.52,123.43v.43l-.07.41-23.22,136.38C1357.22,319.42,1321.86,354.51,1271,354.51ZM32.78,158l24.57,87.52c14.93,60.18,43.76,85.85,96.4,85.85L1271,344.51c45.47,0,77.12-31.91,84.66-85.34l0-.14,23.16-136A113.57,113.57,0,0,0,1265.39,10L149.54,29.35c-38,0-71,14.16-93,39.87C36,93.32,27.57,124.84,32.78,158Z"/><path class="cls-2" d="M1326,161.21a6,6,0,0,1-6-6,89.77,89.77,0,0,0-89.67-89.67,6,6,0,1,1,0-12A101.79,101.79,0,0,1,1332,155.21,6,6,0,0,1,1326,161.21Z"/></svg>