<svg id="Шар_1" data-name="Шар 1" xmlns="http://www.w3.org/2000/svg" viewBox="0 0 421.7 205.9"><defs><style>.cls-1{opacity:0.5;}.cls-2{fill:#fff;}.cls-3{fill:#fdd61b;}.cls-4{fill:#678da5;}.cls-5{fill:#3a4e69;}.cls-6{fill:#f29100;}</style></defs><g class="cls-1"><rect class="cls-2" x="12.7" y="23.6" width="409" height="158.78" rx="79.4"/></g><path class="cls-3" d="M140.2,110.8a73,73,0,1,0-129.4,5.6h0S18,128.1,13.6,138l-.2.5s-4.8,6.6,2.5,10l23.5,11,3.7,1.7,16.2,7.5c7.3,3.5,9.3-4.5,9.3-4.5l.2-.5C73.5,154,87.2,152,87.2,152h-.3A73.1,73.1,0,0,0,140.2,110.8Z"/><path class="cls-4" d="M63.2,178.1c-1.1,2.4-1.9,4.4-5,3L8.7,158c-3.1-1.5-2.9-3.8-1.8-6.2l.9-1.8c1.1-2.4,4.5-3.2,7.6-1.7l45.1,21c3.1,1.4,4.7,4.6,3.6,7Z"/><path class="cls-4" d="M58.3,188.6c-1.1,2.4-4.5,3.2-7.6,1.8L5.6,169.3c-3.1-1.4-4.7-4.5-3.6-6.9l.9-1.8c1.1-2.4,2.7-4.1,5.8-2.6l49.5,23.1c3.1,1.4,2.1,3.3.9,5.7Z"/><path class="cls-4" d="M38.4,197.5a6.9,6.9,0,0,0,7.3-1.3l5.3-5.7L5.3,169.2l-1,7.7A6.8,6.8,0,0,0,8,183.3Z"/><path class="cls-5" d="M12.5,185.3a12.8,12.8,0,0,0,7.3,12.4A12.6,12.6,0,0,0,34,195.3Z"/><path class="cls-5" d="M8.9,158.1s3.2,1,7.8,2.8l3.8,1.5,4.1,1.8,4.5,1.9,4.5,2.1,4.5,2.1,4.3,2.2c2.8,1.4,5.4,2.7,7.5,3.9,4.4,2.4,7.3,4.2,7.3,4.2l-7.9-2.9-7.9-3.3L37,172.5l-4.5-2.1L28,168.3l-4.3-2.1-4-2.1-3.6-1.9C11.7,159.8,8.9,158.1,8.9,158.1Z"/><path class="cls-6" d="M31.4,154.5l17.2-52h0c.9-2.2,1.9-4.3,2.8-6.4l.2-.3h0a28.1,28.1,0,0,1-8.1-5.2c-4.1-3.9-4-10.1-1.8-14.2a9.5,9.5,0,0,1,10.7-5.1c6.3,1.4,9.5,6.9,8.2,14.1A35.8,35.8,0,0,1,58,93.2l3.6,1.7,12.1,5.6,3.5,1.7a41.3,41.3,0,0,1,4.4-7c4.7-5.7,11-6.8,16.1-2.8a9.5,9.5,0,0,1,3,11.5c-1.7,4.3-6.4,8.3-12.1,7.7a28.4,28.4,0,0,1-9.1-2.9h0l-.2.3q-1.3,3.1-3,6.3h-.1L48,162.3l-4.2-2.6L72,113l2.9-6,.2-.4-3.5-1.7-12-5.6-3.5-1.6a.8.8,0,0,0-.2.4c-1,2.1-1.9,4-2.7,6.1L36,156.1Zm50.2-50.2h.1a23.3,23.3,0,0,0,7.5,2.4c3.2.4,6-2.1,7-4.7a4.7,4.7,0,0,0-1.5-5.8c-4-3.1-7.6,0-9.3,2.1A37.4,37.4,0,0,0,81.6,104.3ZM52.9,76.5,51.4,76A4.6,4.6,0,0,0,46,78.6c-1.3,2.4-1.4,6.2.9,8.4a21.9,21.9,0,0,0,6.7,4.2h0a36.5,36.5,0,0,0,2.2-6.7C56.2,82.1,56.3,78.1,52.9,76.5Z"/><path d="M80,7a73.1,73.1,0,0,1,66.1,103.8,73.1,73.1,0,0,1-53.3,41.1S79.4,154,74.7,163.7l-.2.5s-1.3,5.4-5.9,5.4a8.2,8.2,0,0,1-3.4-.9l1.2.6c3.1,1.4,4.7,4.6,3.6,7l-.9,1.8c-.8,1.8-1.5,3.4-3.2,3.4a4.9,4.9,0,0,1-1.8-.4c3.1,1.4,2.1,3.3.9,5.7l-.8,1.8a4.7,4.7,0,0,1-4.5,2.5,7,7,0,0,1-3.1-.7h.3l-5.3,5.7a6.5,6.5,0,0,1-4.5,1.8,8,8,0,0,1-2.8-.5l-4.4-2.1a13.2,13.2,0,0,1-8.8,3.5,12.7,12.7,0,0,1-12.7-13.5l-4.5-2.1a6.8,6.8,0,0,1-3.7-6.4l1-7.7h.3c-3.1-1.4-4.7-4.5-3.6-6.9l.9-1.8c.8-1.8,1.9-3.2,3.7-3.2a4.8,4.8,0,0,1,2.1.6c-3.1-1.5-2.9-3.8-1.7-6.2l.8-1.8a4.7,4.7,0,0,1,4.5-2.5,7.1,7.1,0,0,1,3.1.8l.5.2c-7.3-3.4-2.5-10-2.5-10l.2-.5c4.4-9.9-2.8-21.6-2.8-21.6A73,73,0,0,1,80,7m0-7A80.1,80.1,0,0,0,37.5,12.2a79.1,79.1,0,0,0-30,34,80.3,80.3,0,0,0,3.1,73.7h.1c1.5,2.4,4.7,9.8,2.4,15a17.5,17.5,0,0,0-2.4,7.9,11.7,11.7,0,0,0-3.4,4.2l-.8,1.8a12.8,12.8,0,0,0-1.3,4.7,14.1,14.1,0,0,0-2.8,4l-.8,1.8a11.7,11.7,0,0,0,2.2,12.7L3.3,176v.5A13.7,13.7,0,0,0,11,189.6l.7.4a19.7,19.7,0,0,0,28.9,13.4l.8.4a13.7,13.7,0,0,0,5.7,1.2,13.5,13.5,0,0,0,9.3-3.7l.2-.2h.1l2.7-2.9h.3a11.8,11.8,0,0,0,10.9-6.5l.8-1.8v-.3a17.8,17.8,0,0,0,1.5-4.3,13.9,13.9,0,0,0,2.3-3.9l.2-.3.8-1.8a10.9,10.9,0,0,0,.9-6.2,15.1,15.1,0,0,0,3.9-6.3c3-6.1,12.7-7.9,12.8-7.9H94A80,80,0,0,0,80,0Z"/><path class="cls-2" d="M86.1,25.3a44.6,44.6,0,0,1,42.7,42.6,2.2,2.2,0,0,0,2.3,2.1,2.3,2.3,0,0,0,2.1-2.3A48.9,48.9,0,0,0,86.3,20.9,2.3,2.3,0,0,0,84,23.1,2.1,2.1,0,0,0,86.1,25.3Z"/></svg>