<svg id="Шар_1" data-name="Шар 1" xmlns="http://www.w3.org/2000/svg" viewBox="0 0 297.85 287.38"><defs><style>.cls-1{fill:#11d1be;fill-rule:evenodd;}</style></defs><path class="cls-1" d="M197.57,191.4a54.69,54.69,0,0,1,21.85.38L237.1,98.1l-98.2,26.66s-12,52.26-26.52,108.15c-7.1,27.35-31.16,48.84-56.16,53.4C25.2,291.65,0,276.6,0,252.33s25.34-47.77,56.17-53.11a63.08,63.08,0,0,1,31.5,2L116.4,66,285.78,22.32,246,214.07c2.4,26.7-26.48,46.07-48.62,49.9-25.92,4.47-46.89-8.15-46.89-28.2s21-39.91,46.89-44.37Z"/><path d="M49.41,276.92c-14,0-26.5-4-35.56-11.67A36.61,36.61,0,0,1,.55,236.86c0-26.69,26.49-52.18,60.31-58a68.19,68.19,0,0,1,28.58.7l28.26-133L297.85,0,256.51,199.29c-2.39,31.33-29,50-52.73,54.14-16.22,2.79-31.31-.48-41.39-9A31.16,31.16,0,0,1,151,220.3c0-22.72,22.42-44.37,51.05-49.3l.59-.07a58.85,58.85,0,0,1,18.3-.4l15.28-81-87.6,23.79c-2.74,11.79-13.46,57.5-25.88,105.36-7.4,28.48-32.12,51.95-60.11,57.06A77.93,77.93,0,0,1,49.41,276.92ZM73.5,187.64a58.2,58.2,0,0,0-10.85,1c-28.77,5-52.1,26.6-52.1,48.2a26.43,26.43,0,0,0,9.74,20.74c9.45,8,24.63,11.06,40.62,8.31,23.87-4.35,45.83-25.27,52.18-49.73,14.33-55.18,26.37-107.48,26.49-108l.67-2.92L249,75.71,228.92,182.32l-5-1.12a49.34,49.34,0,0,0-19.85-.36l-.67.09C180,185.12,161,202.71,161,220.3a21.06,21.06,0,0,0,7.8,16.51c7.71,6.5,20.14,9,33.25,6.76,20.13-3.48,42.64-19.16,44.48-45.32l.09-.67L284.8,13.69,126.2,54.6,97,192.28l-5.29-1.74A58.18,58.18,0,0,0,73.5,187.64Z"/></svg>