<svg id="Шар_1" data-name="Шар 1" xmlns="http://www.w3.org/2000/svg" viewBox="0 0 304.8 290.9"><defs><style>.cls-1{fill:#0f9d9b;}.cls-2{fill:#fff;}</style></defs><path class="cls-1" d="M187.2,290.9l-93.7-5.6A80.4,80.4,0,0,1,13,204.9L0,80.5A55.4,55.4,0,0,1,55.4,25.1l146.7-1.9a80.5,80.5,0,0,1,80.5,80.5L267.7,210.4A80.4,80.4,0,0,1,187.2,290.9Z"/><path d="M204.5,277.7h-.3l-93.6-5.6a85.5,85.5,0,0,1-85.3-85.2L12.2,62.5v-.2A60.5,60.5,0,0,1,72.7,1.9L219.3,0a85.5,85.5,0,0,1,85.5,85.5v.7L289.9,192.6A85.5,85.5,0,0,1,204.5,277.7ZM22.2,62,35.3,186.4v.3a75.5,75.5,0,0,0,75.4,75.4h.3l93.6,5.6a75.5,75.5,0,0,0,75.3-75.5v-.7L294.8,85.1A75.6,75.6,0,0,0,219.3,10L72.7,11.9A50.5,50.5,0,0,0,22.2,62Z"/><path class="cls-2" d="M261.6,123h-.4a4.5,4.5,0,0,1-4.1-4.8c1.4-20.3-3.7-37.2-14.8-49.1s-25.7-17.4-42.4-17.4a4.5,4.5,0,0,1,0-9c19.2,0,37,7.4,49,20.3s18.8,33,17.1,55.8A4.4,4.4,0,0,1,261.6,123Z"/></svg>