<svg id="Шар_1" data-name="Шар 1" xmlns="http://www.w3.org/2000/svg" viewBox="0 0 1388.8 369.5"><defs><style>.cls-1{fill:#0e8e42;}.cls-2{fill:#fff;}</style></defs><path class="cls-1" d="M1244.7,369.5,127.5,356.4c-49.5,0-84.3-21.1-101.3-89.7L1.6,179.1C-10,106.3,42.7,44.4,123.2,44.4L1239.1,25a118.4,118.4,0,0,1,118.4,118.4l-23.2,136.5C1326.6,334.7,1294.2,369.5,1244.7,369.5Z"/><path d="M1271,354.5h-.1L153.7,341.4c-57.3,0-90-28.8-106-93.4L23,160.1v-.2c-5.8-36.2,3.4-70.7,26-97.2s59.5-43.3,100.5-43.3L1265.3,0a123.6,123.6,0,0,1,123.5,123.4v.9l-23.3,136.3C1357.2,319.4,1321.9,354.5,1271,354.5ZM32.8,158l24.6,87.5c14.9,60.2,43.7,85.9,96.4,85.9L1271,344.5c45.5,0,77.1-31.9,84.7-85.3V259l23.1-136A113.5,113.5,0,0,0,1265.4,10L149.5,29.4c-38,0-71,14.1-92.9,39.8C36,93.3,27.6,124.8,32.8,158Z"/><path class="cls-2" d="M1326,161.2a6,6,0,0,1-6-6,89.8,89.8,0,0,0-89.7-89.7,6,6,0,0,1-6-6,6,6,0,0,1,6-6A101.8,101.8,0,0,1,1332,155.2,6,6,0,0,1,1326,161.2Z"/></svg>