<svg id="Шар_1" data-name="Шар 1" xmlns="http://www.w3.org/2000/svg" viewBox="0 0 1381.8 358.2"><defs><style>.cls-1{fill:#e60018;}.cls-2{fill:#fff;}</style></defs><path class="cls-1" d="M100.2,27.8l1156.6-2.6c49.5,0,98.5,34.3,93.4,108l-14.9,95.6c-8.9,64.7-26.1,129.4-113.6,129.4L121.5,353.9C56.1,353.9,10.9,311.4,10.9,246L0,107C7.7,52.2,50.6,27.8,100.2,27.8Z"/><path d="M1247.9,343,147.8,338.7C78.7,338.7,32.3,293.5,32.2,226L21.3,86.6v-.5c3.9-27.1,16.5-49,36.5-63.5,18-13.1,41.8-20,68.6-20L1283.1,0c28.5,0,55.1,11,72.9,30.1s27.8,49.2,25.4,83.3v.4l-14.8,95.6c-4.5,32.1-10.9,65.4-28.2,91C1319.1,329.1,1289.5,343,1247.9,343ZM31.3,86.9,42.2,225.6v.2c0,61.6,42.4,102.9,105.6,102.9L1248,333c37.9,0,64.8-12.5,82.1-38.2,16.1-23.9,22.3-55.9,26.6-86.9l14.8-95.4c2.1-31.1-5.8-57.3-22.8-75.6S1308.8,10,1283.1,10L126.4,12.6C73.7,12.6,38.1,40.4,31.3,86.9Z"/><path class="cls-2" d="M1321.1,154.2h-.4a6,6,0,0,1-5.6-6.4c1.9-26.7-4.8-49-19.3-64.6s-33.9-22.9-55.8-22.9a6,6,0,0,1,0-12c25.2,0,48.7,9.7,64.6,26.7s24.6,43.6,22.5,73.6A5.9,5.9,0,0,1,1321.1,154.2Z"/></svg>