<svg id="Шар_1" data-name="Шар 1" xmlns="http://www.w3.org/2000/svg" viewBox="0 0 221.2 227.8"><defs><style>.cls-1{fill:#6c62d5;}.cls-2{fill:#fff;}</style></defs><path class="cls-1" d="M132.45,217.25c4.94-12,10-23.13,16.68-27,6.93-4,19.18-2.94,32.07-1.28A106.88,106.88,0,0,0,208,142.77c-7.83-10.35-14.82-20.57-14.82-28.87S200.19,95.39,208,85A106.88,106.88,0,0,0,181.2,38.85c-12.89,1.66-25.14,2.73-32.07-1.28-6.72-3.88-11.74-15-16.68-27a107.17,107.17,0,0,0-54.71,0c-4.94,12-10,23.14-16.68,27-6.93,4-19.18,2.94-32.07,1.28A106.88,106.88,0,0,0,2.17,85C10,95.39,17,105.6,17,113.9s-7,18.52-14.82,28.87A106.88,106.88,0,0,0,29,189c12.89-1.66,25.14-2.73,32.07,1.28,6.72,3.89,11.74,15,16.68,27a107.17,107.17,0,0,0,54.71,0ZM75.74,113.9a29.36,29.36,0,1,1,29.36,29.36A29.36,29.36,0,0,1,75.74,113.9Z"/><path d="M110.6,7A106.89,106.89,0,0,1,138,10.55c4.93,12,10,23.14,16.68,27,3.52,2,8.43,2.77,14.09,2.77a147.3,147.3,0,0,0,18-1.49A106.76,106.76,0,0,1,213.52,85C205.7,95.39,198.7,105.6,198.7,113.9s7,18.52,14.82,28.87A106.76,106.76,0,0,1,186.71,189a147.14,147.14,0,0,0-18-1.49c-5.67,0-10.58.73-14.1,2.77-6.72,3.89-11.75,15-16.68,27a107.21,107.21,0,0,1-54.72,0c-4.93-12-10-23.13-16.68-27-3.52-2-8.43-2.77-14.1-2.77a147.3,147.3,0,0,0-18,1.49A106.76,106.76,0,0,1,7.68,142.77C15.5,132.42,22.5,122.2,22.5,113.9S15.5,95.39,7.68,85A106.76,106.76,0,0,1,34.49,38.85a147.3,147.3,0,0,0,18,1.49c5.66,0,10.57-.73,14.09-2.77,6.72-3.88,11.75-15,16.68-27A106.89,106.89,0,0,1,110.6,7m0,136.26A29.36,29.36,0,1,0,81.24,113.9a29.36,29.36,0,0,0,29.36,29.36M110.6,0A114,114,0,0,0,81.46,3.78l-3.37.89L76.77,7.89c-3,7.19-8.46,20.59-13.71,23.62-2.09,1.21-5.65,1.83-10.59,1.83a141.3,141.3,0,0,1-17.08-1.43L32,31.46l-2.44,2.47A114,114,0,0,0,.94,83.14L0,86.48l2.09,2.77C6.78,95.45,15.5,107,15.5,113.9S6.78,132.35,2.09,138.55L0,141.32l.94,3.34a114,114,0,0,0,28.57,49.21L32,196.34l3.44-.45a141.31,141.31,0,0,1,17.07-1.43c4.94,0,8.51.62,10.6,1.83,5.25,3,10.75,16.43,13.71,23.62l1.32,3.22,3.37.89a114.21,114.21,0,0,0,58.28,0l3.37-.89,1.32-3.22c3-7.19,8.47-20.59,13.71-23.62,2.09-1.21,5.66-1.83,10.6-1.83a141.31,141.31,0,0,1,17.07,1.43l3.44.45,2.44-2.47a114.16,114.16,0,0,0,28.58-49.21l.93-3.34-2.09-2.77c-4.69-6.2-13.41-17.73-13.41-24.65s8.72-18.45,13.41-24.65l2.09-2.77-.93-3.34a114.22,114.22,0,0,0-28.58-49.21l-2.43-2.47-3.45.45a141.3,141.3,0,0,1-17.08,1.43c-4.93,0-8.5-.62-10.59-1.83-5.24-3-10.75-16.43-13.71-23.62l-1.32-3.22-3.37-.89A114,114,0,0,0,110.6,0Zm0,136.26A22.36,22.36,0,1,1,133,113.9a22.38,22.38,0,0,1-22.36,22.36Z"/><path class="cls-2" d="M111.45,72.32a45.47,45.47,0,0,1,43.62,43.51,2.25,2.25,0,0,0,4.5-.19,50,50,0,0,0-47.95-47.82,2.25,2.25,0,1,0-.17,4.5Z"/></svg>