<svg id="Шар_1" data-name="Шар 1" xmlns="http://www.w3.org/2000/svg" viewBox="0 0 1381.82 358.25"><defs><style>.cls-1{fill:#e65a00;}.cls-2{fill:#fff;}</style></defs><path class="cls-1" d="M100.16,27.83,1256.79,25.2c49.51,0,98.56,34.34,93.37,108.05l-14.81,95.54c-8.92,64.7-26.16,129.46-113.69,129.46L121.5,354C56.09,354,11,311.44,11,246L0,107C7.74,52.16,50.65,27.83,100.16,27.83Z"/><path d="M1248,343l-1100.19-4.3c-69,0-115.44-45.29-115.53-112.72L21.26,86.6l.08-.54c3.82-27.05,16.42-49,36.43-63.47,18.06-13.06,41.81-20,68.67-20L1283.07,0c28.51,0,55.08,11,72.91,30.09,19,20.44,27.85,49.24,25.46,83.3l0,.42-14.82,95.54c-4.42,32.11-10.9,65.43-28.15,91C1319.06,329.09,1289.47,343,1248,343ZM31.31,86.92l10.92,138.7v.2c0,61.56,42.42,102.92,105.55,102.92L1248,333c37.92,0,64.8-12.51,82.15-38.26,16.11-23.9,22.29-55.88,26.56-86.87l14.79-95.43c2.15-31.13-5.73-57.25-22.8-75.57-16-17.1-39.85-26.91-65.59-26.91L126.44,12.63C73.65,12.63,38.13,40.39,31.31,86.92Z"/><path class="cls-2" d="M1321.14,154.22h-.43a6,6,0,0,1-5.56-6.41c1.87-26.67-4.83-49-19.38-64.63-13.54-14.53-33.88-22.86-55.8-22.86a6,6,0,0,1,0-12c25.24,0,48.77,9.72,64.58,26.68,16.88,18.11,24.68,43.58,22.57,73.65A6,6,0,0,1,1321.14,154.22Z"/></svg>